<?xml version="1.0" encoding="UTF-8" standalone="no"?><!DOCTYPE svg PUBLIC "-//W3C//DTD SVG 1.1//EN" "http://www.w3.org/Graphics/SVG/1.1/DTD/svg11.dtd"><svg width="100%" height="100%" color="currentColor" viewBox="0 0 143 148" version="1.1" xmlns="http://www.w3.org/2000/svg" xmlns:xlink="http://www.w3.org/1999/xlink" xml:space="preserve" xmlns:serif="http://www.serif.com/" style="fill-rule:evenodd;clip-rule:evenodd;stroke-linejoin:round;stroke-miterlimit:2;"><path d="M105.638,17.119c-2.529,-0 -4.575,2.05 -4.575,4.578c-0,2.525 2.046,4.575 4.575,4.575c2.528,-0 4.578,-2.05 4.578,-4.575c-0,-2.528 -2.05,-4.578 -4.578,-4.578Zm22.618,21.847c-2.953,-0 -5.35,2.393 -5.35,5.35c0,2.953 2.397,5.35 5.35,5.35c2.953,-0 5.35,-2.397 5.35,-5.35c0,-2.957 -2.397,-5.35 -5.35,-5.35Zm8.61,31.046c-3.385,0 -6.125,2.744 -6.125,6.126c-0,3.381 2.74,6.125 6.125,6.125c3.381,-0 6.122,-2.744 6.122,-6.125c-0,-3.382 -2.741,-6.126 -6.122,-6.126Zm-8.61,31.05c-3.809,0 -6.897,3.088 -6.897,6.897c0,3.81 3.088,6.897 6.897,6.897c3.81,0 6.9,-3.087 6.9,-6.897c0,-3.809 -3.09,-6.897 -6.9,-6.897Zm-22.618,21.844c-4.238,0 -7.672,3.435 -7.672,7.672c-0,4.238 3.434,7.672 7.672,7.672c4.237,-0 7.671,-3.434 7.671,-7.672c0,-4.237 -3.434,-7.672 -7.671,-7.672Zm-31.822,7.835c-4.666,-0 -8.444,3.781 -8.444,8.443c-0,4.666 3.778,8.447 8.444,8.447c4.665,0 8.447,-3.781 8.447,-8.447c-0,-4.662 -3.782,-8.443 -8.447,-8.443Zm-31.822,-9.382c-5.094,0 -9.222,4.129 -9.222,9.219c-0,5.091 4.128,9.219 9.222,9.219c5.09,-0 9.219,-4.128 9.219,-9.219c-0,-5.09 -4.129,-9.219 -9.219,-9.219Zm-22.622,-23.393c-5.519,-0 -9.991,4.475 -9.991,9.993c0,5.519 4.472,9.994 9.991,9.994c5.519,0 9.994,-4.475 9.994,-9.994c-0,-5.518 -4.475,-9.993 -9.994,-9.993Zm-8.606,-32.597c-5.947,-0 -10.766,4.822 -10.766,10.769c0,5.946 4.819,10.765 10.766,10.765c5.946,0 10.765,-4.819 10.765,-10.765c0,-5.947 -4.819,-10.769 -10.765,-10.769Zm8.606,-32.594c-6.372,0 -11.541,5.166 -11.541,11.541c0,6.375 5.169,11.54 11.541,11.54c6.375,0 11.544,-5.165 11.544,-11.54c-0,-6.375 -5.169,-11.541 -11.544,-11.541Zm22.622,-23.394c-6.803,0 -12.316,5.516 -12.316,12.316c0,6.8 5.513,12.312 12.316,12.312c6.8,0 12.312,-5.512 12.312,-12.312c0,-6.8 -5.512,-12.316 -12.312,-12.316Zm44.909,3.707c0,7.228 -5.859,13.087 -13.087,13.087c-7.228,0 -13.088,-5.859 -13.088,-13.087c0,-7.229 5.86,-13.088 13.088,-13.088c7.228,-0 13.087,5.859 13.087,13.088Z" style="fill:currentColor;fill-rule:nonzero;"/></svg>