<?xml version="1.0" encoding="UTF-8" standalone="no"?><!DOCTYPE svg PUBLIC "-//W3C//DTD SVG 1.1//EN" "http://www.w3.org/Graphics/SVG/1.1/DTD/svg11.dtd"><svg width="100%" height="100%" viewBox="0 0 149 149" version="1.1" xmlns="http://www.w3.org/2000/svg" xmlns:xlink="http://www.w3.org/1999/xlink" xml:space="preserve" xmlns:serif="http://www.serif.com/" style="fill-rule:evenodd;clip-rule:evenodd;stroke-linejoin:round;stroke-miterlimit:2;"><path d="M85.366,11.359c-0,6.275 -5.088,11.363 -11.363,11.363c-6.275,-0 -11.362,-5.088 -11.362,-11.363c-0,-6.272 5.087,-11.359 11.362,-11.359c6.275,-0 11.363,5.087 11.363,11.359Z" style="fill:currentColor;fill-rule:nonzero;"/><path d="M116.981,19.912c0,6.276 -5.087,11.363 -11.362,11.363c-6.275,-0 -11.36,-5.087 -11.36,-11.363c0,-6.275 5.085,-11.359 11.36,-11.359c6.275,0 11.362,5.084 11.362,11.359Z" style="fill: currentColor; opacity: 0.92;fill-rule:nonzero;"/><path d="M139.453,42.387c0,6.272 -5.087,11.36 -11.362,11.36c-6.275,-0 -11.363,-5.088 -11.363,-11.36c0,-6.278 5.088,-11.362 11.363,-11.362c6.275,-0 11.362,5.084 11.362,11.362Z" style="fill: currentColor; opacity: 0.16;fill-rule:nonzero;"/><path d="M148.006,74c0,6.278 -5.087,11.362 -11.362,11.362c-6.275,0 -11.363,-5.084 -11.363,-11.362c0,-6.272 5.088,-11.359 11.363,-11.359c6.275,-0 11.362,5.087 11.362,11.359Z" style="fill: currentColor; opacity: 0.24;fill-rule:nonzero;"/><path d="M139.453,105.619c0,6.272 -5.087,11.359 -11.362,11.359c-6.275,0 -11.363,-5.087 -11.363,-11.359c0,-6.275 5.088,-11.363 11.363,-11.363c6.275,0 11.362,5.088 11.362,11.363Z" style="fill: currentColor; opacity: 0.32;fill-rule:nonzero;"/><path d="M116.981,128.091c0,6.275 -5.087,11.359 -11.362,11.359c-6.275,-0 -11.36,-5.084 -11.36,-11.359c0,-6.275 5.085,-11.363 11.36,-11.363c6.275,0 11.362,5.088 11.362,11.363Z" style="fill: currentColor; opacity: 0.40;fill-rule:nonzero;"/><path d="M85.366,136.641c-0,6.278 -5.088,11.362 -11.363,11.362c-6.275,0 -11.362,-5.084 -11.362,-11.362c-0,-6.275 5.087,-11.36 11.362,-11.36c6.275,0 11.363,5.085 11.363,11.36Z" style="fill: currentColor; opacity: 0.48;fill-rule:nonzero;"/><path d="M53.75,128.091c-0,6.275 -5.088,11.359 -11.363,11.359c-6.275,-0 -11.362,-5.084 -11.362,-11.359c-0,-6.275 5.087,-11.363 11.362,-11.363c6.275,0 11.363,5.088 11.363,11.363Z" style="fill: currentColor; opacity: 0.56;fill-rule:nonzero;"/><path d="M31.275,105.619c-0,6.272 -5.084,11.359 -11.359,11.359c-6.275,0 -11.363,-5.087 -11.363,-11.359c0,-6.275 5.088,-11.363 11.363,-11.363c6.275,0 11.359,5.088 11.359,11.363Z" style="fill: currentColor; opacity: 0.64;fill-rule:nonzero;"/><path d="M22.725,74c0,6.278 -5.088,11.362 -11.362,11.362c-6.276,0 -11.363,-5.084 -11.363,-11.362c-0,-6.272 5.087,-11.359 11.363,-11.359c6.274,-0 11.362,5.087 11.362,11.359Z" style="fill: currentColor; opacity: 0.72;fill-rule:nonzero;"/><path d="M31.275,42.387c-0,6.272 -5.084,11.36 -11.359,11.36c-6.275,-0 -11.363,-5.088 -11.363,-11.36c0,-6.278 5.088,-11.362 11.363,-11.362c6.275,-0 11.359,5.084 11.359,11.362Z" style="fill: currentColor; opacity: 0.80;fill-rule:nonzero;"/><path d="M53.75,19.912c-0,6.276 -5.088,11.363 -11.363,11.363c-6.275,-0 -11.362,-5.087 -11.362,-11.363c-0,-6.275 5.087,-11.359 11.362,-11.359c6.275,0 11.363,5.084 11.363,11.359Z" style="fill: currentColor; opacity: 0.88;fill-rule:nonzero;"/><path d="M85.366,11.359c-0,6.275 -5.088,11.363 -11.363,11.363c-6.275,-0 -11.362,-5.088 -11.362,-11.363c-0,-6.272 5.087,-11.359 11.362,-11.359c6.275,-0 11.363,5.087 11.363,11.359Z" style="fill:currentColor;fill-rule:nonzero;"/></svg>