<?xml version="1.0" encoding="UTF-8" standalone="no"?><!DOCTYPE svg PUBLIC "-//W3C//DTD SVG 1.1//EN" "http://www.w3.org/Graphics/SVG/1.1/DTD/svg11.dtd"><svg width="100%" height="100%" viewBox="0 0 149 149" version="1.1" xmlns="http://www.w3.org/2000/svg" xmlns:xlink="http://www.w3.org/1999/xlink" xml:space="preserve" xmlns:serif="http://www.serif.com/" style="fill-rule:evenodd;clip-rule:evenodd;stroke-linejoin:round;stroke-miterlimit:2;"><path d="M122.822,78.713c-0.953,10.021 -4.906,19.162 -10.969,26.509l17.834,17.831c10.56,-11.978 17.31,-27.384 18.369,-44.34l-25.234,-0Zm-10.969,-35.882c6.063,7.344 10.016,16.488 10.969,26.507l25.234,-0c-1.059,-16.957 -7.809,-32.363 -18.369,-44.341l-17.834,17.834Zm-6.628,69.019c-7.347,6.063 -16.491,10.016 -26.509,10.966l-0,25.237c16.956,-1.059 32.362,-7.812 44.343,-18.369l-17.834,-17.834Zm-35.884,10.966c-10.019,-0.95 -19.163,-4.903 -26.507,-10.966l-17.834,17.834c11.978,10.56 27.384,17.31 44.341,18.369l-0,-25.237Zm-33.138,-17.594c-6.066,-7.344 -10.015,-16.488 -10.969,-26.509l-25.234,-0c1.059,16.956 7.809,32.362 18.372,44.34l17.831,-17.831Zm6.628,-69.022c7.347,-6.062 16.491,-10.016 26.51,-10.966l-0,-25.234c-16.957,1.056 -32.363,7.809 -44.341,18.369l17.831,17.831Zm35.885,-36.2l-0,25.234c10.018,0.95 19.165,4.904 26.509,10.966l17.834,-17.831c-11.978,-10.56 -27.384,-17.313 -44.343,-18.369Zm-78.716,69.338c1.059,-16.957 7.809,-32.363 18.372,-44.341l17.831,17.834c-6.066,7.344 -10.015,16.488 -10.969,26.507l-25.234,-0Z" style="fill:currentColor;fill-rule:nonzero;"/></svg>