<?xml version="1.0" encoding="UTF-8" standalone="no"?><!DOCTYPE svg PUBLIC "-//W3C//DTD SVG 1.1//EN" "http://www.w3.org/Graphics/SVG/1.1/DTD/svg11.dtd"><svg width="100%" height="100%" viewBox="0 0 148 148" version="1.1" xmlns="http://www.w3.org/2000/svg" xmlns:xlink="http://www.w3.org/1999/xlink" xml:space="preserve" xmlns:serif="http://www.serif.com/" style="fill-rule:evenodd;clip-rule:evenodd;stroke-linejoin:round;stroke-miterlimit:2;"><path d="M98.397,40.834l14.219,-24.628c1.272,-2.206 0.515,-5.025 -1.688,-6.3c-2.203,-1.268 -5.028,-0.522 -6.303,1.688l-14.219,24.628c-1.272,2.206 -0.515,5.028 1.688,6.3c0.728,0.419 1.519,0.619 2.303,0.619c1.594,-0 3.144,-0.828 4,-2.307Zm13.281,16.657l24.625,-14.219c2.206,-1.272 2.963,-4.094 1.691,-6.297c-1.278,-2.209 -4.103,-2.962 -6.303,-1.691l-24.628,14.222c-2.204,1.272 -2.96,4.094 -1.688,6.297c0.856,1.481 2.406,2.31 3.997,2.31c0.784,-0 1.578,-0.2 2.306,-0.622Zm36.222,16.459c0,-2.547 -2.066,-4.612 -4.612,-4.612l-28.438,-0c-2.547,-0 -4.609,2.065 -4.609,4.612c-0,2.544 2.062,4.609 4.609,4.609l28.438,0c2.546,0 4.612,-2.065 4.612,-4.609Zm-9.906,36.972c1.272,-2.203 0.515,-5.025 -1.691,-6.3l-24.625,-14.216c-2.2,-1.268 -5.028,-0.522 -6.303,1.688c-1.272,2.203 -0.516,5.025 1.688,6.297l24.628,14.218c0.725,0.419 1.518,0.619 2.303,0.619c1.594,0 3.144,-0.825 4,-2.306Zm-27.066,27.069c2.203,-1.275 2.96,-4.094 1.688,-6.3l-14.219,-24.628c-1.272,-2.207 -4.103,-2.96 -6.303,-1.688c-2.203,1.272 -2.96,4.094 -1.688,6.3l14.219,24.628c0.853,1.478 2.403,2.306 3.997,2.306c0.784,0 1.578,-0.2 2.306,-0.618Zm-32.366,5.297l0,-28.441c0,-2.547 -2.062,-4.609 -4.609,-4.609c-2.55,-0 -4.612,2.062 -4.612,4.609l-0,28.441c-0,2.543 2.062,4.609 4.612,4.609c2.547,-0 4.609,-2.066 4.609,-4.609Zm-35.287,-6.985l14.222,-24.628c1.272,-2.206 0.516,-5.028 -1.688,-6.3c-2.196,-1.272 -5.028,-0.519 -6.303,1.688l-14.222,24.628c-1.271,2.206 -0.515,5.025 1.688,6.3c0.728,0.418 1.522,0.618 2.306,0.618c1.594,0 3.144,-0.828 3.997,-2.306Zm-27.066,-23.694l24.629,-14.218c2.203,-1.272 2.959,-4.094 1.687,-6.297c-1.272,-2.21 -4.103,-2.96 -6.303,-1.688l-24.625,14.216c-2.21,1.275 -2.963,4.097 -1.691,6.3c0.857,1.481 2.407,2.306 4,2.306c0.782,0 1.578,-0.2 2.303,-0.619Zm21.454,-38.659c-0,-2.547 -2.063,-4.612 -4.61,-4.612l-28.441,-0c-2.543,-0 -4.612,2.065 -4.612,4.612c0,2.544 2.069,4.609 4.612,4.609l28.441,0c2.547,0 4.61,-2.065 4.61,-4.609Zm4.862,-18.147c1.272,-2.203 0.516,-5.025 -1.687,-6.297l-24.629,-14.222c-2.209,-1.275 -5.025,-0.518 -6.303,1.691c-1.272,2.203 -0.519,5.025 1.691,6.297l24.625,14.219c0.728,0.422 1.522,0.622 2.306,0.622c1.591,-0 3.141,-0.829 3.997,-2.31Zm13.284,-13.281c2.204,-1.272 2.96,-4.094 1.688,-6.3l-14.222,-24.628c-1.275,-2.21 -4.1,-2.96 -6.303,-1.688c-2.203,1.275 -2.959,4.094 -1.688,6.3l14.222,24.628c0.857,1.479 2.406,2.307 4,2.307c0.785,-0 1.575,-0.2 2.303,-0.619Zm18.144,-4.863c-2.55,0 -4.612,-2.062 -4.612,-4.609l-0,-28.437c-0,-2.547 2.062,-4.613 4.612,-4.613c2.547,0 4.609,2.066 4.609,4.613l0,28.437c0,2.547 -2.062,4.609 -4.609,4.609Z" style="fill:currentColor;fill-rule:nonzero;"/></svg>