<?xml version="1.0" encoding="UTF-8" standalone="no"?><!DOCTYPE svg PUBLIC "-//W3C//DTD SVG 1.1//EN" "http://www.w3.org/Graphics/SVG/1.1/DTD/svg11.dtd"><svg width="100%" height="100%" viewBox="0 0 136 147" version="1.1" xmlns="http://www.w3.org/2000/svg" xmlns:xlink="http://www.w3.org/1999/xlink" xml:space="preserve" xmlns:serif="http://www.serif.com/" style="fill-rule:evenodd;clip-rule:evenodd;stroke-linejoin:round;stroke-miterlimit:2;"><path d="M97.1,17.766l-8.644,15.168c17.581,7.891 29.847,25.516 29.847,46.032c0,27.878 -22.6,50.475 -50.475,50.475c-27.878,-0 -50.472,-22.597 -50.472,-50.475c0,-22.95 15.331,-42.291 36.303,-48.419l0.353,11.675l34.344,-22.172l-35.622,-20.05l0.385,12.759c-30.382,6.719 -53.119,33.8 -53.119,66.207c0,37.462 30.369,67.831 67.828,67.831c37.463,-0 67.825,-30.369 67.825,-67.831c0,-26.972 -15.75,-50.269 -38.553,-61.2Z" style="fill:currentColor;fill-rule:nonzero;"/></svg>