<?xml version="1.0" encoding="UTF-8" standalone="no"?><!DOCTYPE svg PUBLIC "-//W3C//DTD SVG 1.1//EN" "http://www.w3.org/Graphics/SVG/1.1/DTD/svg11.dtd"><svg width="100%" height="100%" fill="currentColor" viewBox="0 0 143 148" version="1.1" xmlns="http://www.w3.org/2000/svg" xmlns:xlink="http://www.w3.org/1999/xlink" xml:space="preserve" xmlns:serif="http://www.serif.com/" style="fill-rule:evenodd;clip-rule:evenodd;stroke-linejoin:round;stroke-miterlimit:2;"><path d="M86.903,13.088c0,7.228 -5.859,13.087 -13.087,13.087c-7.232,0 -13.091,-5.859 -13.091,-13.087c-0,-7.229 5.859,-13.088 13.091,-13.088c7.228,0 13.087,5.859 13.087,13.088Z" style="fill: currentColor; opacity: 1;"/><path d="M110.212,21.697c0,2.525 -2.05,4.575 -4.578,4.575c-2.525,-0 -4.575,-2.05 -4.575,-4.575c0,-2.528 2.05,-4.578 4.575,-4.578c2.528,-0 4.578,2.05 4.578,4.578Z" style="fill: currentColor; opacity: 0.08;fill-rule:nonzero;"/><path d="M133.606,44.316c0,2.953 -2.397,5.35 -5.35,5.35c-2.956,-0 -5.35,-2.397 -5.35,-5.35c0,-2.957 2.394,-5.35 5.35,-5.35c2.953,-0 5.35,2.393 5.35,5.35Z" style="fill: currentColor; opacity: 0.16;fill-rule:nonzero;"/><path d="M142.987,76.138c0,3.381 -2.74,6.125 -6.125,6.125c-3.381,-0 -6.121,-2.744 -6.121,-6.125c-0,-3.382 2.74,-6.126 6.121,-6.126c3.385,0 6.125,2.744 6.125,6.126Z" style="fill: currentColor; opacity: 0.24;fill-rule:nonzero;"/><path d="M135.153,107.959c0,3.81 -3.09,6.897 -6.897,6.897c-3.812,0 -6.9,-3.087 -6.9,-6.897c0,-3.809 3.088,-6.897 6.9,-6.897c3.807,0 6.897,3.088 6.897,6.897Z" style="fill: currentColor; opacity: 0.32;fill-rule:nonzero;"/><path d="M113.306,130.578c0,4.238 -3.434,7.672 -7.672,7.672c-4.234,-0 -7.668,-3.434 -7.668,-7.672c-0,-4.237 3.434,-7.672 7.668,-7.672c4.238,0 7.672,3.435 7.672,7.672Z" style="fill: currentColor; opacity: 0.40;fill-rule:nonzero;"/><path d="M82.259,139.184c0,4.666 -3.781,8.447 -8.443,8.447c-4.666,0 -8.447,-3.781 -8.447,-8.447c-0,-4.662 3.781,-8.443 8.447,-8.443c4.662,-0 8.443,3.781 8.443,8.443Z" style="fill: currentColor; opacity: 0.48;fill-rule:nonzero;"/><path d="M51.212,130.578c0,5.091 -4.128,9.219 -9.218,9.219c-5.094,-0 -9.222,-4.128 -9.222,-9.219c-0,-5.09 4.128,-9.219 9.222,-9.219c5.09,0 9.218,4.129 9.218,9.219Z" style="fill: currentColor; opacity: 0.56;fill-rule:nonzero;"/><path d="M29.366,107.959c-0,5.519 -4.475,9.994 -9.994,9.994c-5.519,0 -9.991,-4.475 -9.991,-9.994c0,-5.518 4.472,-9.993 9.991,-9.993c5.519,-0 9.994,4.475 9.994,9.993Z" style="fill: currentColor; opacity: 0.64;fill-rule:nonzero;"/><path d="M21.531,76.138c0,5.946 -4.819,10.765 -10.765,10.765c-5.947,0 -10.766,-4.819 -10.766,-10.765c0,-5.947 4.819,-10.769 10.766,-10.769c5.946,-0 10.765,4.822 10.765,10.769Z" style="fill: currentColor; opacity: 0.72;fill-rule:nonzero;"/><path d="M30.916,44.316c-0,6.375 -5.169,11.54 -11.544,11.54c-6.372,0 -11.538,-5.165 -11.538,-11.54c0,-6.375 5.166,-11.541 11.538,-11.541c6.375,0 11.544,5.166 11.544,11.541Z" style="fill: currentColor; opacity: 0.80;fill-rule:nonzero;"/><path d="M54.306,21.697c0,6.8 -5.512,12.312 -12.312,12.312c-6.803,0 -12.316,-5.512 -12.316,-12.312c0,-6.8 5.513,-12.316 12.316,-12.316c6.8,0 12.312,5.516 12.312,12.316Z" style="fill: currentColor; opacity: 0.88; fill-rule:nonzero;"/></svg>