<?xml version="1.0" encoding="UTF-8" standalone="no"?><!DOCTYPE svg PUBLIC "-//W3C//DTD SVG 1.1//EN" "http://www.w3.org/Graphics/SVG/1.1/DTD/svg11.dtd"><svg width="100%" height="100%" viewBox="0 0 145 141" version="1.1" xmlns="http://www.w3.org/2000/svg" xmlns:xlink="http://www.w3.org/1999/xlink" xml:space="preserve" xmlns:serif="http://www.serif.com/" style="fill-rule:evenodd;clip-rule:evenodd;stroke-linejoin:round;stroke-miterlimit:2;"><path d="M85.775,3.905c-0.172,0.675 0.238,1.366 0.916,1.538c13.994,3.553 26.153,12.24 33.944,23.525c7.884,11.259 11.284,24.997 9.896,37.959c-1.253,12.988 -7.312,24.966 -16.318,33.41c-8.969,8.509 -20.7,13.368 -32.3,13.862c-0.582,0.028 -1.244,0.097 -1.832,0.206c-7.15,1.322 -11.868,8.185 -10.547,15.331c1.316,7.144 8.182,11.869 15.329,10.547l0.422,-0.078c17.546,-3.24 33.362,-12.919 44.003,-26.272c10.746,-13.287 16.278,-30.256 15.615,-46.625c-0.484,-16.378 -7.034,-32.146 -17.697,-43.659c-10.587,-11.594 -25.128,-18.988 -40.056,-20.694c-0.619,-0.069 -1.215,0.325 -1.375,0.95Zm-27.969,133.644c-14.928,-1.706 -29.468,-9.097 -40.056,-20.694c-10.662,-11.512 -17.215,-27.281 -17.697,-43.662c-0.662,-16.366 4.869,-33.335 15.619,-46.622c10.637,-13.353 26.453,-23.031 44,-26.272l0.422,-0.078c7.147,-1.319 14.009,3.403 15.331,10.547c1.319,7.147 -3.403,14.009 -10.55,15.331c-0.587,0.109 -1.25,0.178 -1.831,0.209c-11.6,0.491 -23.331,5.35 -32.303,13.863c-9.003,8.441 -15.06,20.419 -16.316,33.406c-1.39,12.963 2.013,26.7 9.897,37.96c7.791,11.284 19.953,19.975 33.944,23.525c0.678,0.171 1.09,0.862 0.915,1.54c-0.156,0.622 -0.753,1.019 -1.375,0.947Z" style="fill:currentColor;fill-rule:nonzero;"/></svg>