<?xml version="1.0" encoding="UTF-8" standalone="no"?><!DOCTYPE svg PUBLIC "-//W3C//DTD SVG 1.1//EN" "http://www.w3.org/Graphics/SVG/1.1/DTD/svg11.dtd"><svg width="100%" height="100%" viewBox="0 0 149 149" version="1.1" xmlns="http://www.w3.org/2000/svg" xmlns:xlink="http://www.w3.org/1999/xlink" xml:space="preserve" xmlns:serif="http://www.serif.com/" style="fill-rule:evenodd;clip-rule:evenodd;stroke-linejoin:round;stroke-miterlimit:2;"><path d="M89.616,135.347l2.421,-14.7c-5.546,2.128 -11.546,3.347 -17.843,3.347c-23.657,-0 -43.416,-16.506 -48.497,-38.619l-12.978,-7.778l-11.588,9.425c6.081,34.856 36.466,61.359 73.063,61.359c10.109,0 19.74,-2.031 28.522,-5.687l-13.1,-7.347Zm33.168,-117.191l-0.584,14.069l-14.997,4.744c10.281,9.122 16.794,22.397 16.794,37.222c-0,16.981 -8.513,31.959 -21.491,40.95l-2.506,15.209l12.819,7.191c21.328,-13.032 35.565,-36.528 35.565,-63.35c0,-22.385 -9.925,-42.435 -25.6,-56.035Zm-122.743,57.588c-0.01,-0.519 -0.041,-1.035 -0.041,-1.553c-0,-40.975 33.219,-74.191 74.194,-74.191c14.493,0 28.006,4.172 39.431,11.356l-0.578,13.866l-15.609,4.941c-6.941,-3.675 -14.844,-5.775 -23.244,-5.775c-27.313,-0 -49.46,21.987 -49.775,49.221l-12.522,-7.506l-11.856,9.641Z" style="fill:currentColor;fill-rule:nonzero;"/></svg>