<?xml version="1.0" encoding="UTF-8" standalone="no"?><!DOCTYPE svg PUBLIC "-//W3C//DTD SVG 1.1//EN" "http://www.w3.org/Graphics/SVG/1.1/DTD/svg11.dtd"><svg width="100%" height="100%" viewBox="0 0 148 148" version="1.1" xmlns="http://www.w3.org/2000/svg" xmlns:xlink="http://www.w3.org/1999/xlink" xml:space="preserve" xmlns:serif="http://www.serif.com/" style="fill-rule:evenodd;clip-rule:evenodd;stroke-linejoin:round;stroke-miterlimit:2; "><path d="M73.947,37.659c-2.547,0 -4.613,-2.062 -4.613,-4.609l0,-28.437c0,-2.547 2.066,-4.613 4.613,-4.613c2.547,0 4.612,2.066 4.612,4.613l0,28.437c0,2.547 -2.065,4.609 -4.612,4.609Z" style="fill:currentColor;fill-rule:nonzero;"/><path d="M53.5,43.141c-1.594,-0 -3.144,-0.828 -3.997,-2.307l-14.219,-24.628c-1.271,-2.206 -0.515,-5.025 1.688,-6.3c2.2,-1.272 5.025,-0.522 6.303,1.688l14.216,24.628c1.275,2.206 0.515,5.028 -1.688,6.3c-0.725,0.419 -1.519,0.619 -2.303,0.619Z" style="fill: currentColor; opacity: 0.88;fill-rule:nonzero;"/><path d="M38.525,58.113c-0.784,-0 -1.578,-0.2 -2.303,-0.622l-24.628,-14.219c-2.203,-1.272 -2.96,-4.094 -1.688,-6.297c1.275,-2.209 4.1,-2.959 6.3,-1.691l24.628,14.222c2.204,1.272 2.963,4.094 1.688,6.297c-0.853,1.481 -2.403,2.31 -3.997,2.31Z" style="fill: currentColor; opacity: 0.80;fill-rule:nonzero;"/><path d="M33.047,78.559l-28.438,0c-2.547,0 -4.609,-2.065 -4.609,-4.609c-0,-2.547 2.062,-4.612 4.609,-4.612l28.438,-0c2.547,-0 4.612,2.065 4.612,4.612c0,2.544 -2.065,4.609 -4.612,4.609Z" style="fill: currentColor; opacity: 0.72;fill-rule:nonzero;"/><path d="M13.903,113.228c-1.594,0 -3.144,-0.825 -3.997,-2.306c-1.272,-2.203 -0.515,-5.025 1.688,-6.3l24.628,-14.216c2.2,-1.272 5.025,-0.522 6.3,1.688c1.275,2.203 0.516,5.025 -1.688,6.297l-24.628,14.218c-0.725,0.419 -1.519,0.619 -2.303,0.619Z" style="fill: currentColor; opacity: 0.64;fill-rule:nonzero;"/><path d="M39.275,138.609c-0.784,0 -1.578,-0.2 -2.303,-0.618c-2.203,-1.275 -2.959,-4.094 -1.688,-6.3l14.219,-24.628c1.275,-2.207 4.1,-2.96 6.3,-1.688c2.203,1.272 2.963,4.094 1.688,6.3l-14.216,24.628c-0.856,1.478 -2.406,2.306 -4,2.306Z" style="fill: currentColor; opacity: 0.56;fill-rule:nonzero;"/><path d="M73.947,147.897c-2.547,-0 -4.613,-2.066 -4.613,-4.609l0,-28.441c0,-2.547 2.066,-4.609 4.613,-4.609c2.547,-0 4.612,2.062 4.612,4.609l0,28.441c0,2.543 -2.065,4.609 -4.612,4.609Z" style="fill: currentColor; opacity: 0.48;fill-rule:nonzero;"/><path d="M108.619,138.609c-1.594,0 -3.144,-0.828 -4,-2.306l-14.216,-24.628c-1.275,-2.206 -0.516,-5.028 1.688,-6.3c2.2,-1.272 5.025,-0.519 6.3,1.688l14.218,24.628c1.272,2.206 0.516,5.025 -1.687,6.3c-0.725,0.418 -1.519,0.618 -2.303,0.618Z" style="fill: currentColor; opacity: 0.40;fill-rule:nonzero;"/><path d="M133.994,113.228c-0.785,0 -1.578,-0.2 -2.307,-0.619l-24.625,-14.218c-2.203,-1.272 -2.962,-4.094 -1.687,-6.297c1.275,-2.21 4.1,-2.956 6.3,-1.688l24.628,14.216c2.203,1.275 2.959,4.097 1.688,6.3c-0.853,1.481 -2.403,2.306 -3.997,2.306Z" style="fill: currentColor; opacity: 0.32;fill-rule:nonzero;"/><path d="M143.284,78.559l-28.437,0c-2.55,0 -4.613,-2.065 -4.613,-4.609c0,-2.547 2.063,-4.612 4.613,-4.612l28.437,-0c2.55,-0 4.613,2.065 4.613,4.612c-0,2.544 -2.063,4.609 -4.613,4.609Z" style="fill: currentColor; opacity: 0.24;fill-rule:nonzero;"/><path d="M109.372,58.113c-1.594,-0 -3.144,-0.829 -3.997,-2.31c-1.275,-2.203 -0.516,-5.025 1.687,-6.297l24.625,-14.222c2.204,-1.271 5.029,-0.518 6.304,1.691c1.271,2.203 0.515,5.025 -1.688,6.297l-24.628,14.219c-0.725,0.422 -1.519,0.622 -2.303,0.622Z" style="fill: currentColor; opacity: 0.16;fill-rule:nonzero;"/><path d="M94.394,43.141c-0.785,-0 -1.578,-0.2 -2.303,-0.619c-2.204,-1.272 -2.963,-4.094 -1.688,-6.3l14.216,-24.628c1.278,-2.21 4.103,-2.956 6.303,-1.688c2.203,1.275 2.959,4.094 1.687,6.3l-14.218,24.628c-0.854,1.479 -2.404,2.307 -3.997,2.307Z" style="fill: currentColor; opacity: 0.92;fill-rule:nonzero;"/></svg>