<?xml version="1.0" encoding="UTF-8" standalone="no"?><!DOCTYPE svg PUBLIC "-//W3C//DTD SVG 1.1//EN" "http://www.w3.org/Graphics/SVG/1.1/DTD/svg11.dtd"><svg width="100%" height="100%" viewBox="0 0 147 146" version="1.1" xmlns="http://www.w3.org/2000/svg" xmlns:xlink="http://www.w3.org/1999/xlink" xml:space="preserve" xmlns:serif="http://www.serif.com/" style="fill-rule:evenodd;clip-rule:evenodd;stroke-linejoin:round;stroke-miterlimit:2;"><path d="M115.469,12.241l-20.938,-10.082c1.238,1.182 14.319,37.338 14.319,37.338c0,-0 7.731,-25.916 6.619,-27.256Zm22.072,24.215l-14.491,-18.168c1.038,1.399 -2.662,39.84 -2.662,39.84c-0,0 17.968,-20.144 17.153,-21.672Zm9.378,31.394l-5.172,-22.659c0.7,1.568 -19.081,34.746 -19.081,34.746c-0,0 24.659,-10.481 24.253,-12.087Zm-5.172,32.353l5.172,-22.659c0.278,1.594 -31.681,23.059 -31.681,23.059c-0,0 26.496,1.097 26.509,-0.4Zm-18.697,26.906l14.491,-18.171c-0.119,1.431 -37.953,7.075 -37.953,7.075c-0,-0 23.15,12.306 23.462,11.096Zm-28.519,16.125l20.938,-10.081c-0.357,1.1 -36.635,-10.028 -36.635,-10.028c0,-0 15.313,20.931 15.697,20.109Zm-32.693,2.16l23.243,-0c-0.359,0.703 -27.99,-24.85 -27.99,-24.85c-0,-0 4.543,25.297 4.747,24.85Zm-30.388,-12.241l20.938,10.081c-0.11,0.363 -13.735,-34.434 -13.735,-34.434c0,-0 -7.04,24.559 -7.203,24.353Zm-22.072,-24.215l14.491,18.171c0.294,0.169 3.294,-36.9 3.294,-36.9c-0,0 -17.182,18.878 -17.785,18.729Zm-9.378,-31.394l5.172,22.659c0.725,0.169 19.706,-31.753 19.706,-31.753c0,-0 -23.894,9.366 -24.878,9.094Zm5.172,-32.353l-5.172,22.659c1.069,0.328 32.253,-20.031 32.253,-20.031c0,-0 -25.856,-2.147 -27.081,-2.628Zm18.697,-26.903l-14.491,18.168c1.269,0.55 38.466,-4.069 38.466,-4.069c-0,0 -22.644,-13.396 -23.975,-14.099Zm28.519,-16.129l-20.938,10.082c1.338,0.768 37.125,12.981 37.125,12.981c0,-0 -14.85,-22.15 -16.187,-23.063Zm37.965,25.594c0,0 -27.187,-26.778 -28.515,-27.753l23.243,0c1.272,1.122 5.272,27.753 5.272,27.753Z" style="fill:currentColor;fill-rule:nonzero;"/></svg>