<?xml version="1.0" encoding="UTF-8" standalone="no"?><!DOCTYPE svg PUBLIC "-//W3C//DTD SVG 1.1//EN" "http://www.w3.org/Graphics/SVG/1.1/DTD/svg11.dtd"><svg width="100%" height="100%" viewBox="0 0 148 149" version="1.1" xmlns="http://www.w3.org/2000/svg" xmlns:xlink="http://www.w3.org/1999/xlink" xml:space="preserve" xmlns:serif="http://www.serif.com/" style="fill-rule:evenodd;clip-rule:evenodd;stroke-linejoin:round;stroke-miterlimit:2;"><path d="M73.997,48.309l-11.122,-48.309l22.244,0l-11.122,48.309Z" style="fill:currentColor;fill-rule:nonzero;"/><path d="M58.784,53.253l-37.39,-32.547l17.994,-13.072l19.396,45.619Z" style="fill: currentColor; opacity: 0.88;fill-rule:nonzero;"/><path d="M49.384,66.194l-49.384,-4.353l6.872,-21.153l42.512,25.506Z" style="fill: currentColor; opacity: 0.80;fill-rule:nonzero;"/><path d="M49.384,82.191l-42.512,25.503l-6.872,-21.153l49.384,-4.35Z" style="fill: currentColor; opacity: 0.64;fill-rule:nonzero;"/><path d="M58.784,95.128l-19.396,45.622l-17.994,-13.075l37.39,-32.547Z" style="fill: currentColor; opacity: 0.48;fill-rule:nonzero;"/><path d="M73.997,100.072l11.122,48.309l-22.244,0l11.122,-48.309Z" style="fill: currentColor; opacity: 0.40;fill-rule:nonzero;"/><path d="M89.209,95.128l37.394,32.547l-17.994,13.075l-19.4,-45.622Z" style="fill: currentColor; opacity: 0.32;fill-rule:nonzero;"/><path d="M98.612,82.191l49.382,4.35l-6.875,21.153l-42.507,-25.503Z" style="fill: currentColor; opacity: 0.24;fill-rule:nonzero;"/><path d="M98.612,66.194l42.507,-25.506l6.875,21.153l-49.382,4.353Z" style="fill: currentColor; opacity: 0.16;fill-rule:nonzero;"/><path d="M89.209,53.253l19.4,-45.619l17.994,13.072l-37.394,32.547Z" style="fill: currentColor; opacity: 0.92;fill-rule:nonzero;"/></svg>