<?xml version="1.0" encoding="UTF-8" standalone="no"?><!DOCTYPE svg PUBLIC "-//W3C//DTD SVG 1.1//EN" "http://www.w3.org/Graphics/SVG/1.1/DTD/svg11.dtd"><svg width="100%" height="100%" viewBox="0 0 149 149" version="1.1" xmlns="http://www.w3.org/2000/svg" xmlns:xlink="http://www.w3.org/1999/xlink" xml:space="preserve" xmlns:serif="http://www.serif.com/" style="fill-rule:evenodd;clip-rule:evenodd;stroke-linejoin:round;stroke-miterlimit:2;"><path d="M69.503,40.825l0,-40.825c-12.841,0.8 -24.787,4.866 -35.034,11.378l23.981,33.01c3.378,-1.8 7.109,-3.01 11.053,-3.563Z" style="fill:currentColor;fill-rule:nonzero;"/><path d="M104.319,59.309l38.837,-12.621c-4.634,-11.682 -12.134,-21.916 -21.656,-29.807l-23.994,33.028c2.788,2.697 5.091,5.879 6.813,9.4Z" style="fill: currentColor; opacity: 0.2;fill-rule:nonzero;"/><path d="M50.875,49.909l-23.997,-33.028c-9.522,7.891 -17.022,18.125 -21.656,29.807l38.837,12.621c1.722,-3.521 4.025,-6.703 6.816,-9.4Z" style="fill: currentColor; opacity: 0.9 ;fill-rule:nonzero;"/><path d="M89.928,44.388l23.984,-33.01c-10.249,-6.509 -22.196,-10.578 -35.034,-11.378l0,40.825c3.941,0.553 7.672,1.763 11.05,3.563Z" style="fill: currentColor; opacity: 0.1;fill-rule:nonzero;"/><path d="M40.625,74.025c0,-1.984 0.203,-3.912 0.534,-5.803l-38.853,-12.622c-1.506,5.891 -2.306,12.063 -2.306,18.425c0,6.363 0.8,12.534 2.306,18.428l38.853,-12.625c-0.331,-1.887 -0.534,-3.819 -0.534,-5.803Z" style="fill: currentColor; opacity: 0.8;fill-rule:nonzero;"/><path d="M97.506,98.141l23.994,33.028c9.522,-7.891 17.022,-18.125 21.656,-29.806l-38.837,-12.619c-1.722,3.522 -4.025,6.7 -6.813,9.397Z" style="fill: currentColor; opacity: 0.4;fill-rule:nonzero;"/><path d="M78.878,107.225l0,40.828c12.838,-0.8 24.785,-4.869 35.034,-11.381l-23.984,-33.009c-3.378,1.8 -7.109,3.009 -11.05,3.562Z" style="fill: currentColor; opacity: 0.5;fill-rule:nonzero;"/><path d="M146.072,55.6l-38.85,12.622c0.328,1.891 0.531,3.822 0.531,5.803c0,1.984 -0.203,3.913 -0.534,5.803l38.853,12.625c1.506,-5.894 2.306,-12.065 2.306,-18.428c0,-6.362 -0.8,-12.534 -2.306,-18.425Z" style="fill: currentColor; opacity: 0.3;fill-rule:nonzero;"/><path d="M58.45,103.663l-23.984,33.009c10.25,6.512 22.196,10.581 35.037,11.381l0,-40.828c-3.944,-0.553 -7.672,-1.762 -11.053,-3.562Z" style="fill: currentColor; opacity: 0.6;fill-rule:nonzero;"/><path d="M44.059,88.744l-38.837,12.619c4.634,11.681 12.134,21.915 21.656,29.809l23.997,-33.031c-2.787,-2.694 -5.094,-5.875 -6.816,-9.397Z" style="fill: currentColor; opacity: 0.7;fill-rule:nonzero;"/></svg>