<?xml version="1.0" encoding="UTF-8" standalone="no"?><!DOCTYPE svg PUBLIC "-//W3C//DTD SVG 1.1//EN" "http://www.w3.org/Graphics/SVG/1.1/DTD/svg11.dtd"><svg width="100%" height="100%" viewBox="0 0 148 148" version="1.1" xmlns="http://www.w3.org/2000/svg" xmlns:xlink="http://www.w3.org/1999/xlink" xml:space="preserve" xmlns:serif="http://www.serif.com/" style="fill: currentColor; fill-rule:evenodd;clip-rule:evenodd;stroke-linejoin:round;stroke-miterlimit:2;"><rect x="69.341" y="0" width="9.222" height="34.534" style="fill:currentColor;fill-rule:nonzero;"/><path d="M54.606,39.3l-13.215,-31.906l8.522,-3.531l13.215,31.909l-8.522,3.528Z" style="fill:currentColor;fill-rule:nonzero;"/><path d="M42.819,49.341l-24.419,-24.422l6.522,-6.522l24.419,24.422l-6.522,6.522Z" style="fill:currentColor;fill-rule:nonzero;"/><path d="M35.775,63.125l-31.906,-13.216l3.528,-8.521l31.903,13.215l-3.525,8.522Z" style="fill:currentColor;fill-rule:nonzero;"/><rect x="0" y="69.338" width="34.538" height="9.222" style="fill:currentColor;fill-rule:nonzero;"/><path d="M7.397,106.506l-3.528,-8.522l31.906,-13.215l3.525,8.522l-31.903,13.215Z" style="fill:currentColor;fill-rule:nonzero;"/><path d="M24.922,129.497l-6.522,-6.519l24.419,-24.422l6.522,6.522l-24.419,24.419Z" style="fill:currentColor;fill-rule:nonzero;"/><path d="M49.913,144.034l-8.522,-3.531l13.215,-31.909l8.522,3.531l-13.215,31.909Z" style="fill:currentColor;fill-rule:nonzero;"/><rect x="69.341" y="113.359" width="9.222" height="34.538" style="fill:currentColor;fill-rule:nonzero;"/><path d="M97.987,144.034l-13.215,-31.909l8.522,-3.531l13.212,31.909l-8.519,3.531Z" style="fill:currentColor;fill-rule:nonzero;"/><path d="M122.978,129.497l-24.422,-24.419l6.522,-6.522l24.422,24.422l-6.522,6.519Z" style="fill:currentColor;fill-rule:nonzero;"/><path d="M140.506,106.506l-31.909,-13.215l3.528,-8.522l31.909,13.215l-3.528,8.522Z" style="fill:currentColor;fill-rule:nonzero;"/><rect x="113.366" y="69.338" width="34.531" height="9.222" style="fill:currentColor;fill-rule:nonzero;"/><path d="M112.125,63.125l-3.528,-8.522l31.909,-13.215l3.528,8.521l-31.909,13.216Z" style="fill:currentColor;fill-rule:nonzero;"/><path d="M105.078,49.341l-6.522,-6.522l24.422,-24.422l6.522,6.522l-24.422,24.422Z" style="fill:currentColor;fill-rule:nonzero;"/><path d="M93.294,39.3l-8.522,-3.528l13.215,-31.909l8.519,3.531l-13.212,31.906Z" style="fill:currentColor;fill-rule:nonzero;"/></svg>