<?xml version="1.0" encoding="UTF-8" standalone="no"?><!DOCTYPE svg PUBLIC "-//W3C//DTD SVG 1.1//EN" "http://www.w3.org/Graphics/SVG/1.1/DTD/svg11.dtd"><svg width="100%" height="100%" viewBox="0 0 155 147" version="1.1" xmlns="http://www.w3.org/2000/svg" xmlns:xlink="http://www.w3.org/1999/xlink" xml:space="preserve" xmlns:serif="http://www.serif.com/" style="fill-rule:evenodd;clip-rule:evenodd;stroke-linejoin:round;stroke-miterlimit:2;"><path d="M130.091,56.145c4.006,4.822 7.4,10.622 9.884,17.209c2.275,-6.578 3.647,-13.884 3.697,-21.618c0.05,-7.735 -1.428,-15.741 -4.2,-23.688c0.181,4.022 -0.381,8.178 -0.844,11.881c-0.366,1.932 -0.794,3.81 -1.244,5.61l-0.709,2.65l-0.941,2.621l-2.35,-1.228l-2.487,-1.046c-1.641,-0.66 -3.241,-1.257 -4.816,-1.775c-3.422,-0.885 -6.403,-1.685 -9.709,-1.904c4.869,2.729 9.7,6.457 13.719,11.288Zm-20.263,-27.81c3.113,0.691 6.078,1.857 9.213,3.107c2.934,1.453 6.046,2.994 8.881,5.012c-0.909,-3.415 -2.319,-6.662 -3.831,-10.062c-1.716,-3.194 -3.541,-6.553 -5.86,-9.607c-4.534,-6.181 -10.29,-12.053 -17.278,-16.768c4.906,6.665 8.36,13.653 10.347,20.64c-7.178,0.997 -13.716,3.363 -19.169,6.529c5.582,-0.747 11.556,-0.31 17.697,1.149Zm-32.7,-10.684c5.844,-2.278 12.397,-3.762 19.413,-4.05c-5.538,-4.24 -12.091,-7.75 -19.413,-10.234c-7.312,-2.278 -15.375,-3.528 -23.825,-3.35c7.891,2.565 14.781,6.069 20.497,10.659c-5.231,4.919 -9.119,10.794 -11.675,16.51c4.103,-3.772 9.15,-7.05 15.003,-9.535Zm-36.865,18.841c1.193,-2.669 2.453,-5.541 4.168,-8.157c3.328,-5.306 7.731,-10.484 13.281,-14.734c-7.015,-0.278 -14.343,0.85 -21.687,3.184c-3.716,1.132 -7.247,2.782 -10.909,4.557c-3.46,1.978 -7.057,4.087 -10.329,6.706c7.682,-2.722 15.641,-3.628 22.769,-3.491c-1.128,7.257 -1.15,13.982 0.328,20.3c0.469,-2.812 1.394,-5.49 2.379,-8.365Zm-16.097,19.653c-0.513,-6.297 0.272,-12.95 2.168,-19.691c-5.74,3.935 -11.268,9.013 -15.753,15.282c-4.472,6.256 -8.097,13.559 -10.581,21.618c4.975,-6.678 10.303,-12.181 16.472,-16.209c3.031,6.484 7.547,11.984 12.094,16.209c-2.275,-5.109 -3.879,-10.909 -4.4,-17.209Zm-0,34.419c-4.007,-4.822 -7.397,-10.622 -9.882,-17.21c-2.278,6.578 -3.647,13.885 -3.703,21.619c-0.043,7.738 1.428,15.741 4.206,23.688c-0.181,-4.019 0.382,-8.175 0.844,-11.885c0.366,-1.931 0.794,-3.803 1.244,-5.606l0.706,-2.65l0.938,-2.622l2.35,1.228l2.487,1.047c1.644,0.659 3.241,1.256 4.816,1.775c3.425,0.884 6.406,1.688 9.712,1.903c-4.868,-2.728 -9.7,-6.453 -13.718,-11.287Zm20.265,27.809c-3.118,-0.687 -6.078,-1.859 -9.215,-3.106c-2.932,-1.453 -6.047,-2.997 -8.882,-5.01c0.91,3.413 2.322,6.66 3.832,10.06c1.715,3.197 3.543,6.55 5.859,9.606c4.534,6.181 10.291,12.053 17.278,16.772c-4.903,-6.669 -8.359,-13.656 -10.347,-20.644c7.182,-0.994 13.713,-3.362 19.169,-6.528c-5.581,0.747 -11.559,0.309 -17.694,-1.15Zm32.697,10.684c-5.844,2.279 -12.397,3.763 -19.416,4.05c5.541,4.241 12.094,7.75 19.416,10.232c7.316,2.281 15.372,3.531 23.825,3.356c-7.887,-2.569 -14.778,-6.072 -20.497,-10.663c5.232,-4.918 9.119,-10.793 11.675,-16.509c-4.103,3.772 -9.153,7.05 -15.003,9.534Zm36.863,-18.84c-1.191,2.668 -2.45,5.54 -4.163,8.156c-3.331,5.303 -7.734,10.484 -13.287,14.734c7.018,0.282 14.347,-0.846 21.69,-3.184c3.719,-1.131 7.247,-2.781 10.91,-4.553c3.456,-1.981 7.056,-4.091 10.331,-6.709c-7.685,2.721 -15.644,3.628 -22.775,3.49c1.134,-7.256 1.153,-13.981 -0.325,-20.3c-0.469,2.816 -1.394,5.494 -2.381,8.366Zm11.697,-36.863c4.549,4.225 9.065,9.722 12.1,16.21c6.165,-4.029 11.493,-9.528 16.468,-16.21c-2.484,8.057 -6.106,15.363 -10.584,21.619c-4.481,6.269 -10.006,11.35 -15.75,15.284c1.897,-6.743 2.681,-13.396 2.169,-19.693c-0.522,-6.3 -2.125,-12.1 -4.403,-17.21Z" style="fill:currentColor;fill-rule:nonzero;"/></svg>