<?xml version="1.0" encoding="UTF-8" standalone="no"?><!DOCTYPE svg PUBLIC "-//W3C//DTD SVG 1.1//EN" "http://www.w3.org/Graphics/SVG/1.1/DTD/svg11.dtd"><svg width="100%" height="100%" viewBox="0 0 142 145" version="1.1" xmlns="http://www.w3.org/2000/svg" xmlns:xlink="http://www.w3.org/1999/xlink" xml:space="preserve" xmlns:serif="http://www.serif.com/" style="fill-rule:evenodd;clip-rule:evenodd;stroke-linejoin:round;stroke-miterlimit:2;"><path d="M56.719,20.088c2.587,-0.713 5.222,-1.235 7.878,-1.566l-2.75,-18.522c-3.528,0.587 -7.006,1.425 -10.406,2.513l5.278,17.575Zm-16.116,7.343c2.256,-1.497 4.619,-2.828 7.056,-3.981l-8.025,-16.006c-3.153,1.647 -6.178,3.522 -9.05,5.597l10.019,14.39Zm-13.162,12.078c1.696,-2.137 3.547,-4.146 5.528,-6.015l-12.01,-12.157c-2.471,2.529 -4.756,5.226 -6.834,8.072l13.316,10.1Zm-8.832,15.657c0.957,-2.575 2.094,-5.072 3.407,-7.475l-14.453,-7.469c-1.56,3.15 -2.891,6.412 -3.975,9.75l15.021,5.194Zm-3.534,17.762c0.113,-2.772 0.416,-5.525 0.913,-8.237l-15.254,-2.457c-0.496,3.466 -0.737,6.957 -0.734,10.438l15.075,0.256Zm2.134,18.119c-0.756,-2.678 -1.318,-5.406 -1.678,-8.156l-14.462,2.237c0.59,3.422 1.431,6.803 2.509,10.1l13.631,-4.181Zm7.725,16.65c-1.565,-2.328 -2.965,-4.766 -4.175,-7.285l-12.312,6.266c1.625,3.053 3.466,5.985 5.5,8.766l10.987,-7.747Zm12.6,13.547c-2.225,-1.741 -4.321,-3.644 -6.268,-5.678l-9.191,9.184c2.472,2.388 5.109,4.594 7.891,6.6l7.568,-10.106Zm16.263,9.037c-2.669,-0.972 -5.259,-2.134 -7.75,-3.475l-5.528,10.853c3.069,1.494 6.24,2.766 9.487,3.8l3.791,-11.178Zm18.422,3.541c-2.869,-0.097 -5.725,-0.391 -8.538,-0.891l-1.74,11.222c3.372,0.463 6.765,0.678 10.15,0.653l0.128,-10.984Zm18.737,-2.331c-2.768,0.8 -5.587,1.403 -8.437,1.797l1.675,10.406c3.322,-0.597 6.603,-1.431 9.8,-2.5l-3.038,-9.703Zm17.185,-8.103c-2.4,1.634 -4.913,3.096 -7.513,4.365l4.46,8.641c2.956,-1.597 5.793,-3.4 8.481,-5.397l-5.428,-7.609Zm13.931,-13.129c-1.791,2.316 -3.744,4.494 -5.838,6.522l6.332,6.263c2.303,-2.416 4.431,-4.994 6.362,-7.706l-6.856,-5.079Zm9.241,-16.89c-0.988,2.768 -2.172,5.459 -3.541,8.05l7.225,3.628c1.431,-2.991 2.647,-6.084 3.631,-9.241l-7.315,-2.437Zm3.537,-19.072c-0.078,2.962 -0.369,5.915 -0.862,8.828l7.187,1.075c0.425,-3.275 0.613,-6.575 0.572,-9.866l-6.897,-0.037Zm-2.537,-19.359c0.846,2.856 1.49,5.768 1.912,8.709l6.363,-1.056c-0.597,-3.228 -1.432,-6.404 -2.482,-9.5l-5.793,1.847Zm-8.491,-17.713c1.706,2.469 3.234,5.056 4.566,7.734l4.987,-2.612c-1.566,-2.859 -3.341,-5.603 -5.294,-8.2l-4.259,3.078Zm-13.656,-14.312c2.403,1.834 4.668,3.837 6.778,5.987l3.362,-3.438c-2.359,-2.221 -4.875,-4.271 -7.518,-6.131l-2.622,3.582Zm-17.519,-9.435c2.869,1 5.656,2.206 8.344,3.606l1.772,-3.578c-2.916,-1.375 -5.925,-2.534 -8.994,-3.472l-1.122,3.444Zm-19.734,-6.334c3.196,-0.06 6.396,0.103 9.578,0.497l-0.45,3.14c-3.013,-0.494 -6.063,-0.772 -9.128,-0.834l-0,-2.803Z" style="fill:currentColor;fill-rule:nonzero;"/></svg>