<?xml version="1.0" encoding="UTF-8" standalone="no"?><!DOCTYPE svg PUBLIC "-//W3C//DTD SVG 1.1//EN" "http://www.w3.org/Graphics/SVG/1.1/DTD/svg11.dtd"><svg width="100%" height="100%" viewBox="0 0 149 148" version="1.1" xmlns="http://www.w3.org/2000/svg" xmlns:xlink="http://www.w3.org/1999/xlink" xml:space="preserve" xmlns:serif="http://www.serif.com/" style="fill-rule:evenodd;clip-rule:evenodd;stroke-linejoin:round;stroke-miterlimit:2;"><path d="M123.684,17.306l-17.046,-10.45l-10.454,17.047l17.05,10.45l10.45,-17.047Zm13.797,17.663l-18.403,7.819l7.819,18.403l18.406,-7.819l-7.822,-18.403Zm10.9,42.5l-19.687,-3.503l-3.5,19.69l19.687,3.5l3.5,-19.687Zm-12.893,39.35l-14.525,-13.744l-13.744,14.525l14.525,13.744l13.744,-14.525Zm-36.894,5.962l-19.438,4.688l4.685,19.44l19.44,-4.687l-4.687,-19.441Zm-29.931,4.875l-19.369,-4.987l-4.985,19.365l19.366,4.988l4.988,-19.366Zm-26.716,-9.631l-13.3,-14.931l-14.934,13.3l13.299,14.931l14.935,-13.3Zm-22.35,-44.253l-19.597,3.984l3.984,19.597l19.594,-3.984l-3.981,-19.597Zm9.384,-30.763l-18.268,-8.131l-8.132,18.272l18.272,8.128l8.128,-18.269Zm23.088,-19.018l-10.891,-16.772l-16.772,10.89l10.894,16.769l16.769,-10.887Zm32.015,-3.994l-19.996,-0l-0,-19.997l19.996,0l0,19.997Z" style="fill:currentColor;fill-rule:nonzero;"/></svg>