<?xml version="1.0" encoding="UTF-8" standalone="no"?><!DOCTYPE svg PUBLIC "-//W3C//DTD SVG 1.1//EN" "http://www.w3.org/Graphics/SVG/1.1/DTD/svg11.dtd"><svg width="100%" height="100%" viewBox="0 0 149 149" version="1.1" xmlns="http://www.w3.org/2000/svg" xmlns:xlink="http://www.w3.org/1999/xlink" xml:space="preserve" xmlns:serif="http://www.serif.com/" style="fill-rule:evenodd;clip-rule:evenodd;stroke-linejoin:round;stroke-miterlimit:2;"><path d="M111.284,9.941c-3.875,-2.238 -11.756,4.159 -17.603,14.287c-5.85,10.131 -7.45,20.156 -3.575,22.394c3.875,2.237 11.757,-4.163 17.603,-14.291c5.85,-10.128 7.45,-20.153 3.575,-22.39Zm27.157,27.153c-2.238,-3.872 -12.263,-2.272 -22.391,3.575c-10.131,5.847 -16.528,13.728 -14.291,17.606c2.238,3.872 12.263,2.272 22.391,-3.575c10.128,-5.847 16.528,-13.728 14.291,-17.606Zm9.937,37.097c0,-4.472 -9.481,-8.1 -21.175,-8.1c-11.697,-0 -21.178,3.628 -21.178,8.1c0,4.475 9.481,8.1 21.178,8.1c11.694,-0 21.175,-3.625 21.175,-8.1Zm-9.937,37.096c2.237,-3.878 -4.163,-11.756 -14.291,-17.606c-10.128,-5.847 -20.153,-7.447 -22.391,-3.575c-2.237,3.875 4.16,11.76 14.291,17.607c10.128,5.846 20.153,7.45 22.391,3.574Zm-27.157,27.154c3.875,-2.238 2.275,-12.263 -3.575,-22.391c-5.846,-10.128 -13.728,-16.525 -17.603,-14.287c-3.875,2.234 -2.275,12.259 3.575,22.39c5.847,10.128 13.728,16.525 17.603,14.288Zm-37.093,9.94c4.472,0 8.1,-9.484 8.1,-21.178c-0,-11.697 -3.628,-21.178 -8.1,-21.178c-4.475,0 -8.104,9.481 -8.104,21.178c0,11.694 3.629,21.178 8.104,21.178Zm-37.097,-9.94c3.875,2.237 11.756,-4.16 17.603,-14.288c5.85,-10.131 7.45,-20.156 3.575,-22.39c-3.875,-2.238 -11.756,4.159 -17.603,14.287c-5.85,10.128 -7.45,20.153 -3.575,22.391Zm-27.156,-27.154c2.237,3.876 12.262,2.272 22.39,-3.574c10.131,-5.847 16.528,-13.732 14.291,-17.607c-2.235,-3.872 -12.26,-2.272 -22.391,3.575c-10.128,5.85 -16.528,13.728 -14.29,17.606Zm-9.938,-37.096c0,4.475 9.481,8.1 21.175,8.1c11.7,-0 21.181,-3.625 21.181,-8.1c0,-4.472 -9.481,-8.1 -21.181,-8.1c-11.694,-0 -21.175,3.628 -21.175,8.1Zm9.938,-37.097c-2.238,3.878 4.162,11.759 14.29,17.606c10.131,5.847 20.156,7.447 22.391,3.575c2.237,-3.878 -4.16,-11.759 -14.291,-17.606c-10.128,-5.847 -20.153,-7.447 -22.39,-3.575Zm27.156,-27.153c-3.875,2.237 -2.275,12.262 3.575,22.39c5.847,10.128 13.728,16.528 17.603,14.291c3.875,-2.238 2.275,-12.263 -3.575,-22.394c-5.847,-10.128 -13.728,-16.525 -17.603,-14.287Zm45.197,11.237c-0,11.697 -3.628,21.178 -8.1,21.178c-4.475,0 -8.104,-9.481 -8.104,-21.178c0,-11.697 3.629,-21.178 8.104,-21.178c4.472,0 8.1,9.481 8.1,21.178Z" style="fill:currentColor;fill-rule:nonzero;"/></svg>