<?xml version="1.0" encoding="UTF-8" standalone="no"?><!DOCTYPE svg PUBLIC "-//W3C//DTD SVG 1.1//EN" "http://www.w3.org/Graphics/SVG/1.1/DTD/svg11.dtd"><svg width="100%" height="100%" viewBox="0 0 146 146" version="1.1" xmlns="http://www.w3.org/2000/svg" xmlns:xlink="http://www.w3.org/1999/xlink" xml:space="preserve" xmlns:serif="http://www.serif.com/" style="fill-rule:evenodd;clip-rule:evenodd;stroke-linejoin:round;stroke-miterlimit:2;"><path d="M135.567,72.885c3.225,-3.044 6.743,-6.61 9.472,-10.613c-3.238,-24.125 -19.694,-45.775 -41.819,-55.706c0.884,2.341 1.675,4.594 2.303,6.875c0.587,2.359 1.062,4.662 1.431,6.9c-2.244,0.65 -4.378,1.366 -6.4,2.141c-2.065,0.856 -4.062,1.853 -5.919,2.85c7.869,3.621 14.925,9.156 20.075,16.171c2.722,3.404 4.697,7.307 6.51,11.238c1.503,4.056 2.925,8.187 3.4,12.516c3.934,2.006 7.294,4.587 10.947,7.628Zm-51.485,-53.763c0.822,-0.672 1.672,-1.337 2.557,-1.997c1.753,-1.287 3.675,-2.69 5.637,-3.8c-0.9,-2.159 -2,-4.109 -3.184,-6.222c-0.594,-1.04 -1.222,-2.087 -1.882,-3.14c-0.668,-0.994 -1.378,-1.963 -2.109,-2.95c-11.922,-1.925 -24.356,-1.185 -35.812,2.897c-11.45,3.956 -21.954,10.69 -30.06,19.69c4.841,-0.384 9.785,0.032 14.225,0.672c-0.1,4.697 0.072,8.985 0.975,13.285c11.656,-13.01 30.056,-19.235 47.244,-16.194c0.772,-0.75 1.578,-1.516 2.409,-2.241Zm-59.956,23.5c-0.366,-1.053 -0.719,-2.131 -1.053,-3.237c-0.288,-1.075 -0.531,-2.16 -0.775,-3.282c-1.147,0.11 -2.331,0.232 -3.503,0.4c-1.128,0.197 -2.272,0.422 -3.431,0.675c-2.285,0.522 -4.779,1.072 -7.057,1.888c-5.525,10.756 -8.584,22.897 -8.287,34.984c0.272,12.057 3.375,24.188 9.409,34.7c0.525,-2.337 1.438,-4.75 2.238,-6.953c0.812,-2.212 1.722,-4.331 2.856,-6.406c2.075,0.837 4.284,1.481 6.469,1.997c2.206,0.506 4.178,0.99 6.397,1.2c-4.338,-7.535 -6.507,-16.178 -6.735,-24.866c-0.231,-8.728 2.01,-17.353 5.928,-25.075c-1.003,-1.962 -1.684,-3.9 -2.456,-6.025Zm4.909,67.335c-2.256,0.075 -4.406,-0.1 -6.737,-0.291c-0.45,2.216 -0.934,4.616 -1.141,6.953c-0.206,2.334 -0.328,4.763 -0.356,7.275c8.469,8.638 19.134,15.097 30.694,18.734c11.634,3.472 24.012,4.063 35.912,1.766c-4.197,-2.844 -7.881,-5.622 -11.125,-9.037c2.882,-3.454 5.2,-7.494 7.047,-11.191c-8.525,1.622 -17.478,1.194 -25.778,-1.263c-8.253,-2.625 -15.906,-7.237 -22,-13.443c-2.081,0.253 -4.256,0.422 -6.516,0.497Zm67.107,9.756c7.847,-3.747 14.515,-9.75 19.572,-16.788c5.075,-7.072 8.078,-15.475 9.165,-24.065c3.028,2.906 6.075,6.328 8.516,10.143c4.206,-2.046 8.069,-4.681 11.987,-7.818c-1.465,12.003 -5.75,23.759 -12.79,33.615c-7.025,9.832 -16.338,18.116 -27.266,23.391c-2.381,-0.794 -4.594,-1.522 -6.797,-2.544c-2.203,-1.022 -4.287,-2.09 -6.253,-3.203c0.906,-2.159 1.688,-4.281 2.353,-6.35c0.666,-2.066 1.116,-4.322 1.513,-6.381Z" style="fill:currentColor;fill-rule:nonzero;"/></svg>