<?xml version="1.0" encoding="UTF-8" standalone="no"?><!DOCTYPE svg PUBLIC "-//W3C//DTD SVG 1.1//EN" "http://www.w3.org/Graphics/SVG/1.1/DTD/svg11.dtd"><svg width="100%" height="100%" viewBox="0 0 149 149" version="1.1" xmlns="http://www.w3.org/2000/svg" xmlns:xlink="http://www.w3.org/1999/xlink" xml:space="preserve" xmlns:serif="http://www.serif.com/" style="fill-rule:evenodd;clip-rule:evenodd;stroke-linejoin:round;stroke-miterlimit:2;"><path d="M22.212,100.512c-2.109,-4.143 -3.737,-8.568 -4.812,-13.212l-15.663,2.759c1.422,6.497 3.694,12.672 6.701,18.407l13.774,-7.954Zm16.966,-72.987c3.738,-2.816 7.788,-5.234 12.147,-7.094l-5.425,-14.909c-6.106,2.519 -11.797,5.834 -16.953,9.809l10.231,12.194Zm-21.778,33.403c1.075,-4.644 2.7,-9.069 4.812,-13.216l-13.774,-7.953c-3.007,5.738 -5.279,11.91 -6.704,18.407l15.666,2.762Zm33.925,66.869c-4.359,-1.863 -8.409,-4.285 -12.147,-7.097l-10.231,12.194c5.159,3.975 10.847,7.29 16.953,9.812l5.425,-14.909Zm39.853,2.125c-4.419,1.344 -9.072,2.119 -13.862,2.375l-0,15.928c6.696,-0.278 13.168,-1.438 19.297,-3.378l-5.435,-14.925Zm39.8,-42.622c-1.075,4.644 -2.7,9.069 -4.809,13.212l13.775,7.954c3.003,-5.735 5.275,-11.91 6.7,-18.407l-15.666,-2.759Zm-73.778,-69c4.419,-1.341 9.072,-2.116 13.866,-2.369l-0,-15.931c-6.7,0.278 -13.172,1.437 -19.297,3.378l5.431,14.922Zm13.866,113.997c-4.794,-0.256 -9.447,-1.031 -13.866,-2.375l-5.431,14.925c6.125,1.94 12.597,3.1 19.297,3.378l-0,-15.928Zm38.134,-11.597c-3.737,2.812 -7.788,5.234 -12.147,7.097l5.425,14.906c6.106,-2.522 11.797,-5.834 16.953,-9.812l-10.231,-12.191Zm-12.147,-100.269c4.359,1.86 8.413,4.278 12.15,7.097l10.231,-12.197c-5.159,-3.975 -10.85,-7.29 -16.956,-9.809l-5.425,14.909Zm-19.737,-4.5c4.79,0.253 9.443,1.028 13.862,2.369l5.431,-14.922c-6.125,-1.937 -12.597,-3.1 -19.293,-3.378l-0,15.931Zm-61.469,58.181c-0,-2.384 0.187,-4.721 0.465,-7.031l-15.65,-2.759c-0.424,3.203 -0.662,6.469 -0.662,9.79c-0,3.322 0.238,6.588 0.662,9.794l15.65,-2.759c-0.278,-2.309 -0.465,-4.647 -0.465,-7.035Zm116.684,0c0,2.388 -0.187,4.726 -0.465,7.035l15.65,2.759c0.425,-3.206 0.662,-6.472 0.662,-9.794c0,-3.321 -0.237,-6.587 -0.662,-9.79l-15.65,2.759c0.278,2.31 0.465,4.647 0.465,7.031Zm-9.478,31.819c-2.578,3.95 -5.631,7.547 -9.062,10.753l10.234,12.2c4.828,-4.415 9.056,-9.465 12.584,-15.009l-13.756,-7.944Zm-97.725,0l-13.759,7.944c3.528,5.544 7.756,10.597 12.584,15.009l10.234,-12.197c-3.431,-3.209 -6.484,-6.806 -9.059,-10.756Zm114.616,-66.172l-13.775,7.953c2.109,4.147 3.734,8.572 4.809,13.216l15.666,-2.762c-1.425,-6.497 -3.697,-12.669 -6.7,-18.407Zm-114.616,2.532c2.575,-3.947 5.628,-7.544 9.059,-10.75l-10.234,-12.2c-4.828,4.415 -9.056,9.465 -12.584,15.006l13.759,7.944Zm88.663,-10.75l10.237,-12.2c4.825,4.415 9.053,9.465 12.581,15.006l-13.756,7.944c-2.578,-3.947 -5.631,-7.544 -9.062,-10.75Z" style="fill:currentColor;fill-rule:nonzero;"/></svg>