<?xml version="1.0" encoding="UTF-8" standalone="no"?><!DOCTYPE svg PUBLIC "-//W3C//DTD SVG 1.1//EN" "http://www.w3.org/Graphics/SVG/1.1/DTD/svg11.dtd"><svg width="100%" height="100%" viewBox="0 0 147 147" version="1.1" xmlns="http://www.w3.org/2000/svg" xmlns:xlink="http://www.w3.org/1999/xlink" xml:space="preserve" xmlns:serif="http://www.serif.com/" style="fill-rule:evenodd;clip-rule:evenodd;stroke-linejoin:round;stroke-miterlimit:2;"><path d="M109.894 9.809a5921.511 5921.511 0 0 1-2.969 5.141l-2.972 5.144c-.987 1.715-1.978 3.428-2.969 5.143 0 0-.987 1.716-2.968 5.144l2.79 1.819c.957.572 1.869 1.203 2.7 1.934.866.691 1.735 1.378 2.6 2.069l2.366 2.322 1.191 1.153 1.056 1.281c.706.847 1.415 1.694 2.122 2.544 1.181 1.872 2.609 3.581 3.565 5.594 2.266 3.812 3.738 8.047 4.878 12.318 1.138 4.3 1.422 8.754 1.478 13.175-.249 2.029-.162 4.094-.599 6.097a951.054 951.054 0 0 0-.519 3.022c-.185 1.003-.544 1.969-.794 2.956-.444 2-1.281 3.875-2.009 5.788-.716 1.919-1.838 3.662-2.694 5.525-.009.016-.019.028-.025.044-2.406 3.715-4.866 7.456-8.144 10.447-.384.393-.769.793-1.153 1.19-.428.353-.853.703-1.281 1.053-.847.707-1.697 1.413-2.544 2.122-1.869 1.181-3.581 2.606-5.591 3.563-3.812 2.262-8.043 3.734-12.315 4.872-4.297 1.137-8.75 1.421-13.169 1.475a51.701 51.701 0 0 1-23.388-6.613l-.046-.025c-7.569-4.594-14.191-10.872-18.372-18.712-4.419-7.697-6.438-16.65-6.35-25.485a51.686 51.686 0 0 1 6.615-23.387l.025-.044c4.594-7.572 10.869-14.191 18.713-18.375 7.697-4.419 16.65-6.434 25.484-6.347l1.528.125c1.013.153 2.572.034 4.575.475 4.047.497 10.097 2.041 17.307 6.025 1.981-3.428 2.968-5.144 2.968-5.144.991-1.715 1.982-3.428 2.969-5.143l2.972-5.144s.991-1.713 2.969-5.141C99.319 3.887 90.259 1.665 84.278.869 81.294.281 78.997.347 77.494.165a680.55 680.55 0 0 0-2.272-.156c-13.097-.2-26.266 2.86-37.678 9.353C25.988 15.597 16.512 25.394 9.841 36.59a.702.702 0 0 0-.035.066C3.822 47.156.428 59.181.022 71.294c-.2 13.093 2.859 26.265 9.353 37.678 6.234 11.556 16.031 21.031 27.228 27.7l.066.037c10.5 5.985 22.528 9.381 34.64 9.785 6.547 0 13.119-.516 19.472-2.16 6.319-1.64 12.535-3.894 18.203-7.197 2.938-1.468 5.55-3.478 8.272-5.3 1.291-1.009 2.535-2.081 3.797-3.128.625-.531 1.253-1.059 1.878-1.59.578-.579 1.157-1.163 1.735-1.741 4.806-4.5 8.568-9.938 12.021-15.469a.728.728 0 0 0 .038-.062c1.344-2.707 2.897-5.316 3.994-8.141 1.112-2.819 2.278-5.619 2.99-8.575.388-1.466.863-2.909 1.147-4.4l.788-4.478c.59-2.981.59-6.031.862-9.047 0-6.55-.512-13.128-2.162-19.478-1.644-6.325-3.894-12.544-7.197-18.216-1.475-2.934-3.488-5.547-5.309-8.272-1.01-1.29-2.082-2.537-3.132-3.796-.528-.629-1.059-1.254-1.587-1.879l-1.747-1.734c-1.175-1.144-2.353-2.284-3.531-3.428-1.278-1.028-2.554-2.053-3.832-3.084-1.256-1.06-2.597-1.997-3.987-2.86 0 0-1.375-.881-4.128-2.65Z" /></svg>