<?xml version="1.0" encoding="UTF-8" standalone="no"?><!DOCTYPE svg PUBLIC "-//W3C//DTD SVG 1.1//EN" "http://www.w3.org/Graphics/SVG/1.1/DTD/svg11.dtd"><svg width="100%" height="100%" viewBox="0 0 148 150" version="1.1" xmlns="http://www.w3.org/2000/svg" xmlns:xlink="http://www.w3.org/1999/xlink" xml:space="preserve" xmlns:serif="http://www.serif.com/" style="fill-rule:evenodd;clip-rule:evenodd;stroke-linejoin:round;stroke-miterlimit:2;"><path d="M83.969,29.509l-16.95,0l-3.769,-29.509l24.488,0l-3.769,29.509Z" style="fill:currentColor;fill-rule:nonzero;"/><path d="M57.516,33.159l-13.55,8.81l-18.35,-21.625l19.572,-12.728l12.328,25.543Z" style="fill: currentColor; opacity: 0.88;fill-rule:nonzero;"/><path d="M35.069,51.022l-6.488,13.937l-25.7,-8.196l9.372,-20.132l22.816,14.391Z" style="fill: currentColor; opacity: 0.80;fill-rule:nonzero;"/><path d="M25.581,75.597l2.138,14.422l-24.631,6.925l-3.088,-20.831l25.581,-0.516Z" style="fill: currentColor; opacity: 0.72;fill-rule:nonzero;"/><path d="M34.003,103.706l9.053,10.403l-16.1,18.072l-13.075,-15.028l20.122,-13.447Z" style="fill: currentColor; opacity: 0.64;fill-rule:nonzero;"/><path d="M55.919,123.609l12.45,3.75l-3.76,22.503l-17.981,-5.418l9.291,-20.835Z" style="fill: currentColor; opacity: 0.56;fill-rule:nonzero;"/><path d="M83.281,127.928l11.691,-3.522l8.728,19.572l-16.888,5.084l-3.531,-21.134Z" style="fill: currentColor; opacity: 0.48;fill-rule:nonzero;"/><path d="M110.441,114.769l7.497,-8.616l16.662,11.134l-10.828,12.444l-13.331,-14.962Z" style="fill: currentColor; opacity: 0.40;fill-rule:nonzero;"/><path d="M127.025,89.003l1.556,-10.512l18.65,0.375l-2.25,15.184l-17.956,-5.047Z" style="fill: currentColor; opacity: 0.32;fill-rule:nonzero;"/><path d="M125.863,59.862l-4.151,-8.921l14.604,-9.21l5.996,12.885l-16.449,5.246Z" style="fill: currentColor; opacity: 0.24;fill-rule:nonzero;"/><path d="M108.078,34.409l-7.584,-4.934l6.903,-14.3l10.953,7.125l-10.272,12.109Z" style="fill: currentColor; opacity: 0.92;fill-rule:nonzero;"/></svg>