<?xml version="1.0" encoding="UTF-8" standalone="no"?><!DOCTYPE svg PUBLIC "-//W3C//DTD SVG 1.1//EN" "http://www.w3.org/Graphics/SVG/1.1/DTD/svg11.dtd"><svg width="100%" height="100%" viewBox="0 0 146 146" version="1.1" xmlns="http://www.w3.org/2000/svg" xmlns:xlink="http://www.w3.org/1999/xlink" xml:space="preserve" xmlns:serif="http://www.serif.com/" style="fill-rule:evenodd;clip-rule:evenodd;stroke-linejoin:round;stroke-miterlimit:2;"><path d="M80.874,34.229l27.978,-16.403c2.231,-1.31 2.981,-4.181 1.672,-6.416c-1.309,-2.234 -4.185,-2.981 -6.416,-1.672l-27.975,16.403c-2.234,1.31 -2.981,4.182 -1.672,6.416c0.872,1.491 2.438,2.316 4.047,2.316c0.803,-0 1.622,-0.207 2.366,-0.644Zm18.047,9.3l32.428,-0.219c2.59,-0.015 4.675,-2.128 4.656,-4.715c-0.019,-2.582 -2.112,-4.66 -4.687,-4.66c-0.032,0 -32.46,0.219 -32.46,0.219c-2.59,0.019 -4.675,2.128 -4.656,4.719c0.019,2.578 2.113,4.656 4.687,4.656l0.032,-0Zm45.565,31.341c1.282,-2.25 0.494,-5.113 -1.759,-6.391l-28.194,-16.028c-2.25,-1.285 -5.112,-0.494 -6.39,1.759c-1.282,2.247 -0.494,5.11 1.759,6.391l28.194,16.028c0.731,0.416 1.525,0.612 2.312,0.612c1.632,0 3.216,-0.853 4.078,-2.371Zm-10.796,35.659c2.234,-1.309 2.981,-4.181 1.671,-6.416l-16.403,-27.978c-1.309,-2.234 -4.184,-2.984 -6.415,-1.672c-2.235,1.31 -2.982,4.182 -1.672,6.416l16.403,27.978c0.872,1.491 2.437,2.316 4.047,2.316c0.806,-0 1.625,-0.207 2.369,-0.644Zm-27.179,25.481c2.591,-0.015 4.675,-2.128 4.657,-4.715l-0.219,-32.432c-0.016,-2.578 -2.109,-4.656 -4.688,-4.656c-2.618,0.016 -4.703,2.128 -4.687,4.716l0.219,32.431c0.018,2.578 2.112,4.656 4.687,4.656l0.031,0Zm-29.887,6.722l16.025,-28.197c1.281,-2.25 0.49,-5.109 -1.756,-6.39c-2.254,-1.288 -5.11,-0.497 -6.391,1.759l-16.025,28.194c-1.281,2.253 -0.494,5.112 1.756,6.39c0.735,0.419 1.525,0.616 2.313,0.616c1.631,-0 3.215,-0.853 4.078,-2.372Zm-35.634,-7.366l27.978,-16.403c2.234,-1.309 2.981,-4.178 1.672,-6.412c-1.31,-2.238 -4.188,-2.981 -6.416,-1.672l-27.978,16.403c-2.235,1.306 -2.982,4.178 -1.672,6.413c0.872,1.49 2.437,2.315 4.047,2.315c0.806,0 1.622,-0.206 2.369,-0.644Zm-27.182,-24.193l32.432,-0.219c2.593,-0.019 4.678,-2.131 4.659,-4.719c-0.019,-2.578 -2.113,-4.656 -4.688,-4.656c-0.031,-0 -32.462,0.219 -32.462,0.219c-2.591,0.018 -4.675,2.131 -4.656,4.718c0.018,2.579 2.112,4.657 4.687,4.657l0.028,-0Zm23.147,-20.275c1.281,-2.25 0.494,-5.113 -1.759,-6.391l-28.191,-16.028c-2.253,-1.284 -5.112,-0.497 -6.391,1.759c-1.281,2.247 -0.493,5.11 1.757,6.391l28.194,16.025c0.731,0.419 1.525,0.616 2.312,0.616c1.631,-0 3.213,-0.854 4.078,-2.372Zm-4.4,-20.253c2.231,-1.31 2.981,-4.182 1.672,-6.416l-16.403,-27.975c-1.313,-2.238 -4.188,-2.981 -6.416,-1.675c-2.234,1.309 -2.981,4.181 -1.672,6.416l16.403,27.975c0.872,1.49 2.438,2.318 4.047,2.318c0.807,0 1.622,-0.209 2.369,-0.643Zm6.31,-19.744c2.59,-0.019 4.675,-2.131 4.656,-4.719l-0.216,-32.431c-0.019,-2.588 -2.034,-4.556 -4.719,-4.656c-2.59,0.018 -4.675,2.131 -4.656,4.718l0.216,32.432c0.019,2.578 2.112,4.656 4.687,4.656l0.032,-0Zm17.653,-13.328c-0.785,-0 -1.578,-0.194 -2.313,-0.613c-2.25,-1.278 -3.037,-4.14 -1.756,-6.39l16.028,-28.194c1.278,-2.256 4.138,-3.044 6.391,-1.76c2.25,1.279 3.037,4.144 1.756,6.391l-16.028,28.197c-0.863,1.519 -2.447,2.369 -4.078,2.369Z" style="fill:currentColor;fill-rule:nonzero;"/></svg>