<?xml version="1.0" encoding="UTF-8" standalone="no"?><!DOCTYPE svg PUBLIC "-//W3C//DTD SVG 1.1//EN" "http://www.w3.org/Graphics/SVG/1.1/DTD/svg11.dtd"><svg width="100%" height="100%" viewBox="0 0 149 149" version="1.1" xmlns="http://www.w3.org/2000/svg" xmlns:xlink="http://www.w3.org/1999/xlink" xml:space="preserve" xmlns:serif="http://www.serif.com/" style="fill-rule:evenodd;clip-rule:evenodd;stroke-linejoin:round;stroke-miterlimit:2;"><path d="M30.897,74.112c-0,-6.771 1.597,-13.156 4.372,-18.862l-26.832,-15.491c-5.378,10.275 -8.437,21.953 -8.437,34.353c-0,12.404 3.059,24.082 8.441,34.354l26.828,-15.488c-2.775,-5.709 -4.372,-12.094 -4.372,-18.866Z" style="fill: currentColor; opacity: 0.80;fill-rule:nonzero;"/><path d="M77.319,30.975c13.603,0.975 25.472,8.187 32.709,18.841l26.788,-15.466c-12.641,-19.866 -34.46,-33.309 -59.497,-34.35l-0,30.975Z" style="fill: currentColor; opacity: 0.16;fill-rule:nonzero;"/><path d="M117.491,74.112c-0,6.772 -1.6,13.157 -4.372,18.866l26.828,15.488c5.378,-10.272 8.437,-21.95 8.437,-34.354c0,-12.4 -3.059,-24.078 -8.437,-34.353l-26.828,15.491c2.772,5.706 4.372,12.091 4.372,18.862Z" style="fill: currentColor; opacity: 0.32;fill-rule:nonzero;"/><path d="M110.028,98.409c-7.237,10.653 -19.109,17.869 -32.709,18.844l-0,30.972c25.037,-1.038 46.853,-14.484 59.497,-34.35l-26.788,-15.466Z" style="fill: currentColor; opacity: 0.48; fill-rule:nonzero;"/><path d="M71.069,117.253c-13.6,-0.975 -25.472,-8.191 -32.71,-18.844l-26.787,15.466c12.64,19.869 34.459,33.312 59.497,34.35l-0,-30.972Z" style="fill: currentColor; opacity: 0.64;fill-rule:nonzero;"/><path d="M38.356,49.812c7.241,-10.65 19.113,-17.862 32.713,-18.837l-0,-30.975c-25.038,1.041 -46.857,14.484 -59.497,34.35l26.784,15.462Z" style="fill:currentColor;fill-rule:nonzero;"/></svg>