<?xml version="1.0" encoding="UTF-8" standalone="no"?><!DOCTYPE svg PUBLIC "-//W3C//DTD SVG 1.1//EN" "http://www.w3.org/Graphics/SVG/1.1/DTD/svg11.dtd"><svg width="100%" height="100%" viewBox="0 0 147 147" version="1.1" xmlns="http://www.w3.org/2000/svg" xmlns:xlink="http://www.w3.org/1999/xlink" xml:space="preserve" xmlns:serif="http://www.serif.com/" style="fill-rule:evenodd;clip-rule:evenodd;stroke-linejoin:round;stroke-miterlimit:2;"><path d="M73.422,4.378l-0,19.153c-20.106,0.006 -37.431,11.975 -45.335,29.138l-16.471,-9.966c11.328,-22.687 34.768,-38.319 61.806,-38.325Zm0.016,23.528c25.106,0 45.531,20.425 45.531,45.532c-0,25.106 -20.425,45.531 -45.531,45.531c-25.126,-0 -45.563,-20.425 -45.563,-45.531c-0,-25.107 20.437,-45.532 45.563,-45.532Zm-0,-27.906c-40.494,0 -73.438,32.944 -73.438,73.438c0,40.474 32.944,73.412 73.438,73.412c40.478,-0 73.406,-32.938 73.406,-73.413c-0,-40.493 -32.928,-73.437 -73.406,-73.437Z" style="fill:currentColor;fill-rule:nonzero;"/></svg>