<?xml version="1.0" encoding="UTF-8" standalone="no"?><!DOCTYPE svg PUBLIC "-//W3C//DTD SVG 1.1//EN" "http://www.w3.org/Graphics/SVG/1.1/DTD/svg11.dtd"><svg width="100%" height="100%" viewBox="0 0 151 151" version="1.1" xmlns="http://www.w3.org/2000/svg" xmlns:xlink="http://www.w3.org/1999/xlink" xml:space="preserve" xmlns:serif="http://www.serif.com/" style="fill-rule:evenodd;clip-rule:evenodd;stroke-linejoin:round;stroke-miterlimit:2;"><path d="M75.216,45.261l-5.371,-39.106c-0.407,-2.963 1.665,-5.697 4.631,-6.103c2.965,-0.41 5.697,1.665 6.106,4.631c0.069,0.49 0.063,1.003 0,1.472l-5.366,39.106Z" style="fill:currentColor;fill-rule:nonzero;"/><path d="M60.241,49.276l-24.206,-31.184c-1.834,-2.365 -1.406,-5.769 0.96,-7.603c2.365,-1.834 5.768,-1.406 7.603,0.956c0.303,0.394 0.556,0.841 0.737,1.278l14.906,36.553Z" style="fill: currentColor; opacity: 0.88;fill-rule:nonzero;"/><path d="M49.276,60.236l-36.553,-14.903c-2.769,-1.128 -4.1,-4.294 -2.972,-7.063c1.134,-2.772 4.294,-4.103 7.065,-2.972c0.46,0.188 0.9,0.447 1.275,0.735l31.185,24.203Z" style="fill: currentColor; opacity: 0.80;fill-rule:nonzero;"/><path d="M45.266,75.211l-39.109,5.369c-2.962,0.406 -5.697,-1.666 -6.106,-4.632c-0.406,-2.965 1.669,-5.7 4.631,-6.106c0.491,-0.069 1.003,-0.062 1.475,0l39.109,5.369Z" style="fill: currentColor; opacity: 0.72;fill-rule:nonzero;"/><path d="M49.276,90.186l-31.185,24.203c-2.362,1.834 -5.765,1.406 -7.6,-0.959c-1.834,-2.363 -1.409,-5.769 0.957,-7.603c0.39,-0.304 0.84,-0.557 1.275,-0.738l36.553,-14.903Z" style="fill: currentColor; opacity: 0.64;fill-rule:nonzero;"/><path d="M60.241,101.148l-14.906,36.553c-1.128,2.769 -4.294,4.1 -7.065,2.969c-2.769,-1.128 -4.1,-4.29 -2.972,-7.062c0.19,-0.46 0.45,-0.9 0.737,-1.278l24.206,-31.182Z" style="fill: currentColor; opacity: 0.56;fill-rule:nonzero;"/><path d="M75.216,105.161l5.366,39.106c0.406,2.966 -1.666,5.7 -4.631,6.106c-2.966,0.407 -5.697,-1.665 -6.106,-4.631c-0.069,-0.494 -0.063,-1.003 -0,-1.475l5.371,-39.106Z" style="fill: currentColor; opacity: 0.48;fill-rule:nonzero;"/><path d="M90.188,101.148l24.203,31.182c1.838,2.365 1.407,5.772 -0.959,7.603c-2.362,1.837 -5.769,1.409 -7.603,-0.956c-0.303,-0.394 -0.553,-0.838 -0.738,-1.276l-14.903,-36.553Z" style="fill: currentColor; opacity: 0.40;fill-rule:nonzero;"/><path d="M101.151,90.186l36.55,14.903c2.772,1.131 4.103,4.294 2.975,7.066c-1.135,2.772 -4.297,4.1 -7.066,2.971c-0.462,-0.19 -0.9,-0.449 -1.275,-0.737l-31.184,-24.203Z" style="fill: currentColor; opacity: 0.32;fill-rule:nonzero;"/><path d="M105.163,75.211l39.107,-5.369c2.965,-0.406 5.696,1.666 6.106,4.631c0.406,2.966 -1.666,5.7 -4.631,6.107c-0.491,0.068 -1.004,0.062 -1.475,-0l-39.107,-5.369Z" style="fill: currentColor; opacity: 0.24;fill-rule:nonzero;"/><path d="M101.151,60.236l31.184,-24.203c2.36,-1.835 5.769,-1.403 7.6,0.959c1.838,2.366 1.41,5.769 -0.956,7.606c-0.391,0.303 -0.841,0.554 -1.278,0.735l-36.55,14.903Z" style="fill: currentColor; opacity: 0.16;fill-rule:nonzero;"/><path d="M90.188,49.276l14.903,-36.553c1.129,-2.771 4.294,-4.103 7.066,-2.971c2.772,1.131 4.1,4.293 2.972,7.062c-0.191,0.463 -0.45,0.903 -0.738,1.278l-24.203,31.184Z" style="fill: currentColor; opacity: 0.92;fill-rule:nonzero;"/></svg>