<?xml version="1.0" encoding="UTF-8" standalone="no"?><!DOCTYPE svg PUBLIC "-//W3C//DTD SVG 1.1//EN" "http://www.w3.org/Graphics/SVG/1.1/DTD/svg11.dtd"><svg width="100%" height="100%" viewBox="0 0 149 149" version="1.1" xmlns="http://www.w3.org/2000/svg" xmlns:xlink="http://www.w3.org/1999/xlink" xml:space="preserve" xmlns:serif="http://www.serif.com/" style="fill-rule:evenodd;clip-rule:evenodd;stroke-linejoin:round;stroke-miterlimit:2;"><path d="M103.253,32.788c4.65,3.303 8.716,7.365 12.019,12.018l20.534,-11.856c-5.459,-8.194 -12.506,-15.241 -20.7,-20.7l-11.853,20.538Zm16.703,20.134c2.341,5.081 3.885,10.6 4.422,16.419l23.678,-0c-0.631,-10.107 -3.284,-19.666 -7.562,-28.272l-20.538,11.853Zm28.1,25.794l-23.681,-0c-0.534,5.822 -2.078,11.334 -4.419,16.415l20.538,11.857c4.278,-8.61 6.931,-18.163 7.562,-28.272Zm-115.272,-33.91c3.307,-4.653 7.369,-8.715 12.022,-12.022l-11.856,-20.534c-8.194,5.459 -15.241,12.506 -20.7,20.7l20.534,11.856Zm82.488,58.444c-3.306,4.653 -7.369,8.716 -12.022,12.022l11.856,20.534c8.194,-5.459 15.241,-12.506 20.7,-20.7l-20.534,-11.856Zm-70.466,12.022c-4.653,-3.303 -8.715,-7.369 -12.022,-12.019l-20.534,11.853c5.459,8.197 12.506,15.241 20.7,20.7l11.856,-20.534Zm-16.706,-20.141c-2.341,-5.081 -3.884,-10.593 -4.419,-16.415l-23.681,-0c0.631,10.109 3.284,19.662 7.562,28.275l20.538,-11.86Zm50.619,-95.131l-0,23.681c5.819,0.535 11.331,2.078 16.412,4.419l11.86,-20.538c-8.613,-4.278 -18.166,-6.931 -28.272,-7.562Zm-78.719,69.341l23.681,-0c0.535,-5.819 2.078,-11.338 4.419,-16.419l-20.538,-11.853c-4.278,8.606 -6.931,18.165 -7.562,28.272Zm52.925,-41.241c5.081,-2.341 10.597,-3.884 16.419,-4.419l-0,-23.681c-10.11,0.631 -19.666,3.284 -28.275,7.562l11.856,20.538Zm16.419,119.956l-0,-23.678c-5.822,-0.537 -11.338,-2.081 -16.419,-4.419l-11.856,20.535c8.609,4.278 18.165,6.931 28.275,7.562Zm37.643,-7.562c-8.609,4.278 -18.162,6.931 -28.268,7.562l-0,-23.678c5.819,-0.537 11.331,-2.081 16.412,-4.422l11.856,20.538Z" style="fill:currentColor;fill-rule:nonzero;"/></svg>