<?xml version="1.0" encoding="UTF-8" standalone="no"?><!DOCTYPE svg PUBLIC "-//W3C//DTD SVG 1.1//EN" "http://www.w3.org/Graphics/SVG/1.1/DTD/svg11.dtd"><svg width="100%" height="100%" viewBox="0 0 146 146" version="1.1" xmlns="http://www.w3.org/2000/svg" xmlns:xlink="http://www.w3.org/1999/xlink" xml:space="preserve" xmlns:serif="http://www.serif.com/" style="fill-rule:evenodd;clip-rule:evenodd;stroke-linejoin:round;stroke-miterlimit:2;"><path d="M121.391,78.397c-0.928,9.769 -4.782,18.681 -10.691,25.841l17.384,17.384c10.294,-11.675 16.875,-26.694 17.907,-43.225l-24.6,-0Zm-10.691,-34.978c5.912,7.159 9.763,16.075 10.691,25.84l24.6,0c-1.032,-16.531 -7.613,-31.55 -17.907,-43.225l-17.384,17.385Zm-6.463,67.281c-7.159,5.909 -16.071,9.766 -25.84,10.694l-0,24.6c16.531,-1.035 31.547,-7.616 43.225,-17.91l-17.385,-17.384Zm-34.978,10.694c-9.768,-0.928 -18.684,-4.782 -25.843,-10.694l-17.385,17.384c11.678,10.294 26.697,16.879 43.228,17.91l0,-24.6Zm-32.306,-17.156c-5.909,-7.16 -9.762,-16.072 -10.69,-25.841l-24.601,-0c1.035,16.531 7.616,31.55 17.91,43.225l17.381,-17.384Zm-8.625,-84.582l15.203,15.203c7.022,-5.468 15.325,-8.903 24.163,-9.993l-0,-21.519c-14.597,1.247 -28.144,6.859 -39.366,16.309Zm14.988,19.407l-19.566,-19.563l1.25,-1.1c12.406,-10.941 27.678,-17.266 44.159,-18.294l1.66,-0.106l-0,27.684l-1.413,0.135c-9.219,0.875 -17.862,4.45 -24.994,10.34l-1.096,0.904Zm36.643,-14.197c8.844,1.093 17.144,4.528 24.166,9.997l15.2,-15.207c-11.225,-9.45 -24.769,-15.062 -39.366,-16.309l0,21.519Zm24.379,14.2l-1.094,-0.903c-7.131,-5.891 -15.775,-9.466 -24.994,-10.344l-1.416,-0.135l0,-27.684l1.66,0.106c16.481,1.028 31.75,7.353 44.159,18.294l1.25,1.1l-19.565,19.566Zm-100.994,28.631l21.519,-0c1.093,-8.841 4.528,-17.141 9.996,-24.166l-15.203,-15.203c-9.453,11.225 -15.065,24.772 -16.312,39.369Zm24.34,3.125l-27.684,-0l0.103,-1.659c1.031,-16.482 7.356,-31.754 18.294,-44.163l1.103,-1.247l19.562,19.563l-0.903,1.097c-5.89,7.134 -9.465,15.774 -10.34,24.993l-0.135,1.416Z" style="fill:currentColor;fill-rule:nonzero;"/></svg>